<?xml version="1.0" encoding="UTF-8" standalone="no"?>
<svg
   version="1.1"
   viewBox="0.00 0.00 512.00 512.00"
   id="svg10"
   sodipodi:docname="logo.svg"
   inkscape:version="1.4 (86a8ad7, 2024-10-11)"
   xmlns:inkscape="http://www.inkscape.org/namespaces/inkscape"
   xmlns:sodipodi="http://sodipodi.sourceforge.net/DTD/sodipodi-0.dtd"
   xmlns="http://www.w3.org/2000/svg"
   xmlns:svg="http://www.w3.org/2000/svg">
  <defs
     id="defs10" />
  <sodipodi:namedview
     id="namedview10"
     pagecolor="#505050"
     bordercolor="#ffffff"
     borderopacity="1"
     inkscape:showpageshadow="0"
     inkscape:pageopacity="0"
     inkscape:pagecheckerboard="1"
     inkscape:deskcolor="#505050"
     inkscape:zoom="1.4863281"
     inkscape:cx="255.6636"
     inkscape:cy="256"
     inkscape:window-width="1920"
     inkscape:window-height="1000"
     inkscape:window-x="2869"
     inkscape:window-y="-11"
     inkscape:window-maximized="1"
     inkscape:current-layer="svg10" />
  <g
     id="g10"
     style="display:inline">
    <path
       fill="#eee1bf"
       fill-opacity="0.996"
       d="M 64.69,99.44 Q 74.67,87.4 80.96,80.97 86.47,75.34 97.18,65.95 116.92,48.63 138.16,36.93 c 10.62,-5.85 24.22,-12.12 37.15,-16.3 q 22.26,-7.2 40.67,-10.14 19.64,-3.13 44.35,-2.97 3.83,0.03 8.84,0.51 1.45,0.14 8.82,0.7 39.21,2.99 75.61,19.49 55.69,25.25 92.84,71.33 18.97,23.53 32.19,49.86 12.87,25.64 19.81,55.88 2.28,9.95 3.27,16.72 5.33,36.26 -0.05,71.73 -2.3,15.18 -7.66,32.54 -25.77,83.46 -96.64,134.56 -14.02,10.1 -31.85,19.21 -16.43,8.4 -32.73,13.73 -4.9,1.6 -15.22,4.55 -8.13,2.32 -15.47,3.54 -27.38,4.54 -53.59,3.5 -16.34,-0.65 -35.06,-4.07 Q 169.42,493.26 131.5,470 91.45,445.44 62.53,409.74 47.81,391.56 37.38,371.62 34.93,366.95 29.88,356.19 C 22.34,340.12 17.06,322.73 13.01,305.5 10.38,294.28 9.27,283.49 8.07,271.39 7.28,263.42 7.52,254.61 7.45,247.78 q -0.05,-4.36 0.74,-12.03 0.65,-6.27 1.38,-11.99 1.95,-15.37 7.18,-34.52 c 8.91,-32.63 26.24,-63.65 47.94,-89.8 z m 216.49,127.53 q 0.42,-0.19 0.67,0.4 0.18,0.43 -0.14,0.85 -21.59,4.34 -43.19,8.68 -18.11,3.64 -31.76,7.82 -14.79,4.53 -25.22,12.8 -12.34,9.77 -9.38,25.5 c 0.76,4.06 3.79,10.33 6.19,13.41 8.78,11.3 19.95,19.99 32.25,29.99 q 4.49,3.65 8.11,7.17 c 7.59,7.37 15.6,16.16 14.54,27.69 -0.72,7.84 -6.84,15.21 -12.89,20.33 q -8.54,7.23 -16.57,12.68 -38.97,26.46 -82.49,40.22 c -0.63,0.2 -1.59,0.17 -2.53,0.4 a 0.43,0.43 0 0 0 -0.21,0.71 c 0.71,0.79 2.67,1.72 4.18,2.88 q 19.12,14.8 40.5,24.25 6.03,2.67 19.44,7.72 a 1.44,1.42 -49.2 0 0 1.24,-0.1 q 1.72,-0.99 10.23,-4.92 3.95,-1.81 10.67,-5.57 23.92,-13.37 45.18,-30.14 16.72,-13.21 29.62,-29.15 4.38,-5.41 8.26,-12.93 c 12.11,-23.4 -5.78,-43.83 -22.78,-57.42 q -9.34,-7.46 -24.03,-17.3 c -7.85,-5.26 -18.45,-12.59 -25.72,-20.67 q -3.96,-4.4 -6.6,-9.76 c -4.74,-9.63 0.78,-19.84 8.27,-26.24 q 6.75,-5.77 18.27,-10.79 0.38,0.06 0.72,0.32 -0.34,0.67 -1.09,1.12 -6.55,3.92 -11.97,10.28 -9.55,11.2 -1.35,23.51 3.06,4.6 7.53,8.43 c 11.4,9.76 20.98,14.72 37.49,24.72 q 9.18,5.55 22.02,15.48 c 10.35,8.01 19.32,17.74 22.57,30.44 q 1.57,6.1 1.16,10.04 -1.53,14.91 -10.14,28.67 -11.61,18.57 -27.45,33.3 -25.76,23.94 -59.24,44.02 -2.38,1.43 -7.75,4.26 a 0.55,0.55 0 0 0 0.27,1.03 c 2.9,-0.06 6.04,1.12 8.09,1.45 q 25.81,4.13 44.61,3.22 13.73,-0.66 18.43,-1.15 16.61,-1.74 34.19,-6.48 c 7.04,-1.9 12,-3.68 17.29,-8.24 Q 349.83,453.38 363,431.5 c 12.5,-20.75 22.9,-48.6 10.67,-71.96 -7.72,-14.73 -21.06,-26.48 -34.84,-35.62 q -20.9,-13.87 -47.82,-25.39 -9.71,-4.15 -22.61,-10.18 c -9.12,-4.27 -34.86,-16.56 -25.46,-30.49 3.77,-5.6 10.12,-9.75 16.46,-13.29 q 3.58,-2.01 14.6,-6.6 11.41,-4.74 14.98,-5.77 21.36,-6.15 42.95,-15.44 c 8.49,-3.65 18.2,-7.06 25.43,-9.14 q 24.81,-7.14 50.14,-0.28 11.69,3.17 22.06,7.93 16.95,7.78 34.61,19.16 c 6.05,3.91 11.82,6.9 18.23,10.01 a 0.49,0.49 0 0 0 0.7,-0.46 c -0.4,-8.69 -1.39,-19.84 -3.16,-29.19 C 467.35,148.1 424.82,90.28 366.4,56.73 347.24,45.72 324.98,36.95 304.18,32.87 q -18.02,-3.54 -33.65,-4.66 -6.28,-0.45 -22.67,-0.35 -13.73,0.09 -22.63,1.25 -24.45,3.2 -41.09,8.55 -50.99,16.42 -90.96,57.09 -34.49,35.11 -51.71,80 c -7.72,20.12 -12.24,40.86 -14.13,61.77 q -0.47,5.19 -0.25,7.86 a 0.44,0.44 0 0 0 0.62,0.36 c 23.02,-10.29 46.5,-24.97 66.94,-38.18 q 6.48,-4.19 13.72,-7.96 c 10.59,-5.51 18.19,-9.02 28.34,-11.9 29.43,-8.35 55.97,1.77 82,14.87 q 13.14,6.6 18.99,9.25 21.17,9.57 43.48,16.15 z"
       id="path7"
       style="display:inline;stroke:#204732;stroke-opacity:1;stroke-width:2;stroke-dasharray:none" />
    <path
       fill="#020604"
       fill-opacity="0.996"
       d="m 236.01,245.8 q 0.19,-0.27 0.26,-0.19 a 1.56,1.35 -34.5 0 1 -0.55,2.13 q -6.19,3.7 -11.68,9.82 c -5.32,5.92 -7,13.41 -2.7,20.58 q 2.42,4.06 2.93,4.6 8.79,9.63 20.36,16.64 5.44,3.3 16.23,9.77 14.75,8.83 29.05,19.94 9.89,7.67 16.01,16.47 5.93,8.54 7.01,17.33 1.86,15.14 -6.25,29.81 -6.29,11.4 -9.81,15.96 -6.55,8.51 -12.85,15.41 -6.45,7.07 -14.46,13.93 -17.5,15 -30.95,24.08 -8.53,5.76 -11.47,7.84 c -5.01,3.56 -10.39,6.51 -16,9.37 a 0.58,0.57 -52.7 0 0 0.14,1.08 c 24.76,4.99 50.4,4.99 75.23,2.12 q 11.83,-1.36 25.82,-5.17 c 6.8,-1.86 11.8,-3.3 16.66,-7.33 8.99,-7.47 17.68,-16.4 24.5,-26.12 q 7.62,-10.85 8.8,-12.86 10.23,-17.37 15.03,-37.27 0.26,-1.08 0.32,-3.81 a 4.46,4.27 -38.6 0 1 0.13,-0.97 q 0.78,-3.11 0.64,-6.46 -0.58,-14.66 -8.45,-27.24 c -7.99,-12.8 -19.9,-22.63 -32.47,-30.93 q -2.67,-1.76 -11.32,-7.08 c -9.27,-5.68 -18.54,-9.71 -29.01,-14.87 q -5.33,-2.62 -19.96,-8.55 -4.51,-1.83 -20.87,-10.72 c -6.61,-3.58 -15.94,-10.57 -16.32,-18.15 q -0.23,-4.58 2.86,-8.57 3.5,-4.52 8.25,-7.77 c 8.5,-5.82 13.71,-7.77 26.09,-13.23 9.3,-4.1 22.29,-7.09 30.57,-10.13 q 9.61,-3.53 27.19,-11.04 6.34,-2.7 9.85,-3.76 6,-1.82 10.06,-3.25 6.91,-2.43 14.51,-3.39 9.87,-1.24 14.86,-1.12 c 9.98,0.23 21.54,2.45 31.7,6.03 q 15.84,5.58 31.28,14.31 8.23,4.65 17.76,10.7 4.28,2.72 7.48,4.46 4.19,2.28 7.71,4.08 a 1.12,1.11 12.2 0 1 1 1.62,-1.04 q -0.91,-18.15 -4.73,-35.53 -1.84,-8.41 -4.56,-16.21 -4.09,-11.72 -7.69,-20.75 -3.67,-9.19 -8.54,-17.9 -6.81,-12.17 -10.02,-17.07 -10.27,-15.63 -24.5,-31.45 Q 405.65,84.42 382.17,67.92 C 374.09,62.24 362.71,56.11 356.04,52.19 q -2.06,-1.22 -5.38,-2.58 -5.31,-2.17 -17.32,-7.02 c -8.21,-3.32 -16.55,-5.85 -24.13,-7.53 Q 278,28.15 245.31,29.1 q -22.7,0.66 -38.82,4.17 -16.47,3.59 -25.49,6.51 -8.11,2.63 -26.38,10.98 -3.28,1.5 -10.46,5.88 -3.44,2.1 -10.26,6.28 -14.05,8.6 -27.64,20.84 -6.97,6.28 -17.71,17.63 -9.26,9.77 -16.04,19.13 -8.79,12.13 -17.77,27.96 -2.86,5.03 -5.21,10.58 C 44,172.11 39.19,182.11 35.95,194.75 q -4.98,19.42 -6.65,36.01 -0.75,7.45 -0.79,11.49 a 0.64,0.64 0 0 0 0.89,0.59 c 7.78,-3.37 15.38,-7.51 24.4,-12.47 q 7.11,-3.92 9.71,-5.51 15.63,-9.57 28.3,-17.72 c 7.43,-4.77 14.47,-8.44 21.55,-12.26 q 17.29,-9.3 36.48,-11.75 6.54,-0.83 11.87,-0.44 7.6,0.55 11.81,1.22 c 9.72,1.54 21.47,5.37 31.25,9.89 13.65,6.31 29.98,14.45 40.18,18.96 q 14.7,6.52 36.19,13.02 a 0.54,0.53 88.6 0 1 0.33,0.32 q 0.17,0.52 -0.29,0.87 -22.31,-6.58 -43.48,-16.15 -5.85,-2.65 -18.99,-9.25 c -26.03,-13.1 -52.57,-23.22 -82,-14.87 -10.15,2.88 -17.75,6.39 -28.34,11.9 q -7.24,3.77 -13.72,7.96 c -20.44,13.21 -43.92,27.89 -66.94,38.18 a 0.44,0.44 0 0 1 -0.62,-0.36 q -0.22,-2.67 0.25,-7.86 c 1.89,-20.91 6.41,-41.65 14.13,-61.77 q 17.22,-44.89 51.71,-80 39.97,-40.67 90.96,-57.09 16.64,-5.35 41.09,-8.55 8.9,-1.16 22.63,-1.25 16.39,-0.1 22.67,0.35 15.63,1.12 33.65,4.66 c 20.8,4.08 43.06,12.85 62.22,23.86 58.42,33.55 100.95,91.37 113.54,158.06 1.77,9.35 2.76,20.5 3.16,29.19 a 0.49,0.49 0 0 1 -0.7,0.46 c -6.41,-3.11 -12.18,-6.1 -18.23,-10.01 q -17.66,-11.38 -34.61,-19.16 -10.37,-4.76 -22.06,-7.93 -25.33,-6.86 -50.14,0.28 c -7.23,2.08 -16.94,5.49 -25.43,9.14 q -21.59,9.29 -42.95,15.44 -3.57,1.03 -14.98,5.77 -11.02,4.59 -14.6,6.6 c -6.34,3.54 -12.69,7.69 -16.46,13.29 -9.4,13.93 16.34,26.22 25.46,30.49 q 12.9,6.03 22.61,10.18 26.92,11.52 47.82,25.39 c 13.78,9.14 27.12,20.89 34.84,35.62 12.23,23.36 1.83,51.21 -10.67,71.96 q -13.17,21.88 -32.33,38.4 c -5.29,4.56 -10.25,6.34 -17.29,8.24 q -17.58,4.74 -34.19,6.48 -4.7,0.49 -18.43,1.15 -18.8,0.91 -44.61,-3.22 c -2.05,-0.33 -5.19,-1.51 -8.09,-1.45 a 0.55,0.55 0 0 1 -0.27,-1.03 q 5.37,-2.83 7.75,-4.26 33.48,-20.08 59.24,-44.02 15.84,-14.73 27.45,-33.3 8.61,-13.76 10.14,-28.67 0.41,-3.94 -1.16,-10.04 c -3.25,-12.7 -12.22,-22.43 -22.57,-30.44 q -12.84,-9.93 -22.02,-15.48 c -16.51,-10 -26.09,-14.96 -37.49,-24.72 q -4.47,-3.83 -7.53,-8.43 -8.2,-12.31 1.35,-23.51 5.42,-6.36 11.97,-10.28 0.75,-0.45 1.09,-1.12 z"
       id="path8"
       style="display:inline" />
    <path
       fill="#204732"
       d="m 236.01,245.8 q -0.34,-0.26 -0.72,-0.32 0.06,-0.88 -0.54,-0.7 c -6.05,1.72 -10.47,5.14 -16.23,9.01 q -5.76,3.86 -10.5,12.49 c -3.24,5.89 -2.89,12.67 0.89,18.68 q 5.02,7.97 9.04,11.65 1.64,1.51 9.76,8.04 4.37,3.52 10.28,7.47 15.99,10.69 22.41,15.77 c 9.7,7.67 18.27,14.94 24.34,24.79 5.4,8.76 7.73,19.77 4.28,29.6 q -4.19,11.92 -14.52,22.97 -13.25,14.17 -18.52,18.53 -25.07,20.73 -55,37.07 c -5.6,3.06 -11.7,5.46 -17.06,8.19 a 1.43,1.42 40.6 0 1 -1.12,0.08 c -9.89,-3.37 -18.83,-6.61 -27.26,-11.35 -4.83,-2.72 -8.62,-4.41 -13.21,-7.11 q -1.5,-0.88 -4.7,-2.86 c -5.68,-3.5 -10.4,-7.67 -15.68,-11.32 a 0.48,0.48 0 0 1 0.12,-0.85 q 35.17,-11.64 66.82,-30.55 c 6.3,-3.76 11.67,-7.54 19.39,-12.54 q 3.56,-2.3 14.32,-11.44 7.57,-6.44 10.78,-15.48 2.37,-6.66 -0.13,-13.42 -2.07,-5.61 -3.87,-7.96 -2.85,-3.71 -3.06,-4 -0.87,-1.17 -3.33,-3.81 -3.79,-4.06 -18.2,-15.96 -14.02,-11.57 -18.91,-16.85 -0.7,-0.75 -0.72,-0.78 -5.04,-5.35 -7.87,-9.86 -5.67,-9.04 -4.22,-19.76 c 1.19,-8.83 8.98,-15.85 16.14,-19.75 q 7.06,-3.84 13.61,-6.39 c 4.59,-1.79 8.93,-2.58 13.54,-3.99 q 3.72,-1.13 10.27,-2.54 21.73,-4.68 31.32,-6.57 13.57,-2.67 16.8,-3.51 a 4.71,4.53 -53.2 0 1 0.85,-0.14 q 3.46,-0.2 6.35,-1.46 a 0.3,0.3 0 0 0 0.18,-0.36 q -0.08,-0.31 -0.42,-0.29 0.32,-0.42 0.14,-0.85 -0.25,-0.59 -0.67,-0.4 0.46,-0.35 0.29,-0.87 a 0.54,0.53 88.6 0 0 -0.33,-0.32 q -21.49,-6.5 -36.19,-13.02 c -10.2,-4.51 -26.53,-12.65 -40.18,-18.96 -9.78,-4.52 -21.53,-8.35 -31.25,-9.89 q -4.21,-0.67 -11.81,-1.22 -5.33,-0.39 -11.87,0.44 -19.19,2.45 -36.48,11.75 c -7.08,3.82 -14.12,7.49 -21.55,12.26 q -12.67,8.15 -28.3,17.72 -2.6,1.59 -9.71,5.51 c -9.02,4.96 -16.62,9.1 -24.4,12.47 a 0.64,0.64 0 0 1 -0.89,-0.59 q 0.04,-4.04 0.79,-11.49 1.67,-16.59 6.65,-36.01 C 39.19,182.11 44,172.11 49.53,159.06 q 2.35,-5.55 5.21,-10.58 8.98,-15.83 17.77,-27.96 6.78,-9.36 16.04,-19.13 10.74,-11.35 17.71,-17.63 13.59,-12.24 27.64,-20.84 6.82,-4.18 10.26,-6.28 7.18,-4.38 10.46,-5.88 18.27,-8.35 26.38,-10.98 9.02,-2.92 25.49,-6.51 16.12,-3.51 38.82,-4.17 32.69,-0.95 63.9,5.96 c 7.58,1.68 15.92,4.21 24.13,7.53 q 12.01,4.85 17.32,7.02 3.32,1.36 5.38,2.58 c 6.67,3.92 18.05,10.05 26.13,15.73 q 23.48,16.5 39.59,34.41 14.23,15.82 24.5,31.45 3.21,4.9 10.02,17.07 4.87,8.71 8.54,17.9 3.6,9.03 7.69,20.75 2.72,7.8 4.56,16.21 3.82,17.38 4.73,35.53 a 1.12,1.11 12.2 0 1 -1.62,1.04 q -3.52,-1.8 -7.71,-4.08 -3.2,-1.74 -7.48,-4.46 -9.53,-6.05 -17.76,-10.7 -15.44,-8.73 -31.28,-14.31 c -10.16,-3.58 -21.72,-5.8 -31.7,-6.03 q -4.99,-0.12 -14.86,1.12 -7.6,0.96 -14.51,3.39 -4.06,1.43 -10.06,3.25 -3.51,1.06 -9.85,3.76 -17.58,7.51 -27.19,11.04 c -8.28,3.04 -21.27,6.03 -30.57,10.13 -12.38,5.46 -17.59,7.41 -26.09,13.23 q -4.75,3.25 -8.25,7.77 -3.09,3.99 -2.86,8.57 c 0.38,7.58 9.71,14.57 16.32,18.15 q 16.36,8.89 20.87,10.72 14.63,5.93 19.96,8.55 c 10.47,5.16 19.74,9.19 29.01,14.87 q 8.65,5.32 11.32,7.08 c 12.57,8.3 24.48,18.13 32.47,30.93 q 7.87,12.58 8.45,27.24 0.14,3.35 -0.64,6.46 a 4.46,4.27 -38.6 0 0 -0.13,0.97 q -0.06,2.73 -0.32,3.81 -4.8,19.9 -15.03,37.27 -1.18,2.01 -8.8,12.86 c -6.82,9.72 -15.51,18.65 -24.5,26.12 -4.86,4.03 -9.86,5.47 -16.66,7.33 q -13.99,3.81 -25.82,5.17 c -24.83,2.87 -50.47,2.87 -75.23,-2.12 a 0.58,0.57 -52.7 0 1 -0.14,-1.08 c 5.61,-2.86 10.99,-5.81 16,-9.37 q 2.94,-2.08 11.47,-7.84 13.45,-9.08 30.95,-24.08 8.01,-6.86 14.46,-13.93 6.3,-6.9 12.85,-15.41 3.52,-4.56 9.81,-15.96 8.11,-14.67 6.25,-29.81 -1.08,-8.79 -7.01,-17.33 -6.12,-8.8 -16.01,-16.47 -14.3,-11.11 -29.05,-19.94 -10.79,-6.47 -16.23,-9.77 -11.57,-7.01 -20.36,-16.64 -0.51,-0.54 -2.93,-4.6 c -4.3,-7.17 -2.62,-14.66 2.7,-20.58 q 5.49,-6.12 11.68,-9.82 a 1.56,1.35 -34.5 0 0 0 0.55,-2.13 q -0.07,-0.08 -0.26,0.19 z"
       id="path9"
       style="display:inline" />
    <path
       fill="#020604"
       fill-opacity="0.996"
       d="m 281.71,228.22 q 0.34,-0.02 0.42,0.29 a 0.3,0.3 0 0 1 -0.18,0.36 q -2.89,1.26 -6.35,1.46 a 4.71,4.53 -53.2 0 0 -0.85,0.14 q -3.23,0.84 -16.8,3.51 -9.59,1.89 -31.32,6.57 -6.55,1.41 -10.27,2.54 c -4.61,1.41 -8.95,2.2 -13.54,3.99 q -6.55,2.55 -13.61,6.39 c -7.16,3.9 -14.95,10.92 -16.14,19.75 q -1.45,10.72 4.22,19.76 2.83,4.51 7.87,9.86 0.02,0.03 0.72,0.78 4.89,5.28 18.91,16.85 14.41,11.9 18.2,15.96 2.46,2.64 3.33,3.81 0.21,0.29 3.06,4 1.8,2.35 3.87,7.96 2.5,6.76 0.13,13.42 -3.21,9.04 -10.78,15.48 -10.76,9.14 -14.32,11.44 c -7.72,5 -13.09,8.78 -19.39,12.54 q -31.65,18.91 -66.82,30.55 a 0.48,0.48 0 0 0 -0.12,0.85 c 5.28,3.65 10,7.82 15.68,11.32 q 3.2,1.98 4.7,2.86 c 4.59,2.7 8.38,4.39 13.21,7.11 8.43,4.74 17.37,7.98 27.26,11.35 a 1.43,1.42 40.6 0 0 1 1.12,-0.08 c 5.36,-2.73 11.46,-5.13 17.06,-8.19 q 29.93,-16.34 55,-37.07 5.27,-4.36 18.52,-18.53 10.33,-11.05 14.52,-22.97 c 3.45,-9.83 1.12,-20.84 -4.28,-29.6 -6.07,-9.85 -14.64,-17.12 -24.34,-24.79 q -6.42,-5.08 -22.41,-15.77 -5.91,-3.95 -10.28,-7.47 -8.12,-6.53 -9.76,-8.04 -4.02,-3.68 -9.04,-11.65 c -3.78,-6.01 -4.13,-12.79 -0.89,-18.68 q 4.74,-8.63 10.5,-12.49 c 5.76,-3.87 10.18,-7.29 16.23,-9.01 q 0.6,-0.18 0.54,0.7 -11.52,5.02 -18.27,10.79 c -7.49,6.4 -13.01,16.61 -8.27,26.24 q 2.64,5.36 6.6,9.76 c 7.27,8.08 17.87,15.41 25.72,20.67 q 14.69,9.84 24.03,17.3 c 17,13.59 34.89,34.02 22.78,57.42 q -3.88,7.52 -8.26,12.93 -12.9,15.94 -29.62,29.15 -21.26,16.77 -45.18,30.14 -6.72,3.76 -10.67,5.57 -8.51,3.93 -10.23,4.92 a 1.44,1.42 -49.2 0 1 -1.24,0.1 q -13.41,-5.05 -19.44,-7.72 -21.38,-9.45 -40.5,-24.25 c -1.51,-1.16 -3.47,-2.09 -4.18,-2.88 a 0.43,0.43 0 0 1 0.21,-0.71 c 0.94,-0.23 1.9,-0.2 2.53,-0.4 q 43.52,-13.76 82.49,-40.22 8.03,-5.45 16.57,-12.68 c 6.05,-5.12 12.17,-12.49 12.89,-20.33 1.06,-11.53 -6.95,-20.32 -14.54,-27.69 q -3.62,-3.52 -8.11,-7.17 c -12.3,-10 -23.47,-18.69 -32.25,-29.99 -2.4,-3.08 -5.43,-9.35 -6.19,-13.41 q -2.96,-15.73 9.38,-25.5 10.43,-8.27 25.22,-12.8 13.65,-4.18 31.76,-7.82 21.6,-4.34 43.19,-8.68 z"
       id="path10"
       style="display:inline" />
  </g>
</svg>
